<svg width="146" height="44" viewBox="0 0 146 44" fill="none" xmlns="http://www.w3.org/2000/svg">
<circle cx="127.5" cy="25.5" r="18.5" fill="#E7951A"/>
<path d="M7.668 21.392H20.232V25.352H7.668V21.392ZM8.064 35H3.384V9.8H21.78V13.724H8.064V35ZM33.4825 35.252C31.8505 35.252 30.4105 34.952 29.1625 34.352C27.9145 33.728 26.9425 32.792 26.2465 31.544C25.5505 30.272 25.2025 28.676 25.2025 26.756V15.776H29.7025V26.144C29.7025 27.872 30.0865 29.168 30.8545 30.032C31.6465 30.872 32.7625 31.292 34.2025 31.292C35.2585 31.292 36.1705 31.076 36.9385 30.644C37.7305 30.212 38.3425 29.564 38.7745 28.7C39.2305 27.836 39.4585 26.768 39.4585 25.496V15.776H43.9585V35H39.6745V29.816L40.4305 31.4C39.7825 32.648 38.8345 33.608 37.5865 34.28C36.3385 34.928 34.9705 35.252 33.4825 35.252ZM52.7226 35V13.76H44.3706V9.8H65.7546V13.76H57.4026V35H52.7226ZM75.9021 35.252C73.7661 35.252 71.8941 34.832 70.2861 33.992C68.7021 33.128 67.4661 31.952 66.5781 30.464C65.7141 28.976 65.2821 27.284 65.2821 25.388C65.2821 23.468 65.7021 21.776 66.5421 20.312C67.4061 18.824 68.5821 17.66 70.0701 16.82C71.5821 15.98 73.2981 15.56 75.2181 15.56C77.0901 15.56 78.7581 15.968 80.2221 16.784C81.6861 17.6 82.8381 18.752 83.6781 20.24C84.5181 21.728 84.9381 23.48 84.9381 25.496C84.9381 25.688 84.9261 25.904 84.9021 26.144C84.9021 26.384 84.8901 26.612 84.8661 26.828H68.8461V23.84H82.4901L80.7261 24.776C80.7501 23.672 80.5221 22.7 80.0421 21.86C79.5621 21.02 78.9021 20.36 78.0621 19.88C77.2461 19.4 76.2981 19.16 75.2181 19.16C74.1141 19.16 73.1421 19.4 72.3021 19.88C71.4861 20.36 70.8381 21.032 70.3581 21.896C69.9021 22.736 69.6741 23.732 69.6741 24.884V25.604C69.6741 26.756 69.9381 27.776 70.4661 28.664C70.9941 29.552 71.7381 30.236 72.6981 30.716C73.6581 31.196 74.7621 31.436 76.0101 31.436C77.0901 31.436 78.0621 31.268 78.9261 30.932C79.7901 30.596 80.5581 30.068 81.2301 29.348L83.6421 32.12C82.7781 33.128 81.6861 33.908 80.3661 34.46C79.0701 34.988 77.5821 35.252 75.9021 35.252ZM100.577 35V31.112L100.325 30.284V23.48C100.325 22.16 99.9293 21.14 99.1373 20.42C98.3453 19.676 97.1453 19.304 95.5373 19.304C94.4573 19.304 93.3893 19.472 92.3333 19.808C91.3013 20.144 90.4253 20.612 89.7053 21.212L87.9413 17.936C88.9733 17.144 90.1973 16.556 91.6133 16.172C93.0533 15.764 94.5413 15.56 96.0773 15.56C98.8613 15.56 101.009 16.232 102.521 17.576C104.057 18.896 104.825 20.948 104.825 23.732V35H100.577ZM94.5293 35.252C93.0893 35.252 91.8293 35.012 90.7493 34.532C89.6693 34.028 88.8293 33.344 88.2293 32.48C87.6533 31.592 87.3653 30.596 87.3653 29.492C87.3653 28.412 87.6173 27.44 88.1213 26.576C88.6493 25.712 89.5013 25.028 90.6773 24.524C91.8533 24.02 93.4133 23.768 95.3573 23.768H100.937V26.756H95.6813C94.1453 26.756 93.1133 27.008 92.5853 27.512C92.0573 27.992 91.7933 28.592 91.7933 29.312C91.7933 30.128 92.1173 30.776 92.7653 31.256C93.4133 31.736 94.3133 31.976 95.4653 31.976C96.5693 31.976 97.5533 31.724 98.4173 31.22C99.3053 30.716 99.9413 29.972 100.325 28.988L101.081 31.688C100.649 32.816 99.8693 33.692 98.7413 34.316C97.6373 34.94 96.2333 35.252 94.5293 35.252ZM134.864 15.56C136.4 15.56 137.756 15.86 138.932 16.46C140.132 17.06 141.068 17.984 141.74 19.232C142.412 20.456 142.748 22.04 142.748 23.984V35H138.248V24.56C138.248 22.856 137.876 21.584 137.132 20.744C136.388 19.904 135.32 19.484 133.928 19.484C132.944 19.484 132.068 19.7 131.3 20.132C130.556 20.564 129.968 21.2 129.536 22.04C129.128 22.88 128.924 23.948 128.924 25.244V35H124.424V24.56C124.424 22.856 124.052 21.584 123.308 20.744C122.564 19.904 121.496 19.484 120.104 19.484C119.12 19.484 118.244 19.7 117.476 20.132C116.732 20.564 116.144 21.2 115.712 22.04C115.304 22.88 115.1 23.948 115.1 25.244V35H110.6V15.776H114.884V20.888L114.128 19.376C114.776 18.128 115.712 17.18 116.936 16.532C118.184 15.884 119.6 15.56 121.184 15.56C122.984 15.56 124.544 16.004 125.864 16.892C127.208 17.78 128.096 19.124 128.528 20.924L126.764 20.312C127.388 18.872 128.42 17.72 129.86 16.856C131.3 15.992 132.968 15.56 134.864 15.56Z" fill="white"/>
</svg>
